<svg xmlns="http://www.w3.org/2000/svg" viewBox="0 0 1024 1024" width="1024" height="1024">
  <defs>
    <linearGradient id="bg" x1="0%" y1="0%" x2="100%" y2="100%">
      <stop offset="0%" stop-color="#1565C0"/>
      <stop offset="100%" stop-color="#2E7D32"/>
    </linearGradient>
  </defs>

  <!-- Background -->
  <rect width="1024" height="1024" rx="220" ry="220" fill="url(#bg)"/>

  <!-- ═══════════════════ CYCLIST (left) ═══════════════════ -->
  <!-- Rear wheel -->
  <circle cx="200" cy="760" r="140" fill="none" stroke="white" stroke-width="48"/>
  <circle cx="200" cy="760" r="20" fill="white"/>
  <!-- Front wheel -->
  <circle cx="480" cy="760" r="140" fill="none" stroke="white" stroke-width="48"/>
  <circle cx="480" cy="760" r="20" fill="white"/>

  <!-- Frame -->
  <!-- BB -->
  <circle cx="340" cy="760" r="24" fill="white"/>
  <!-- Chainstay rear -->
  <polygon points="200,742 340,748 340,772 200,778" fill="white"/>
  <!-- Chainstay front -->
  <polygon points="340,748 480,742 480,778 340,772" fill="white"/>
  <!-- Seat stay -->
  <polygon points="200,742 294,536 316,546 222,756" fill="white"/>
  <!-- Seat tube -->
  <polygon points="326,756 294,532 316,526 350,754" fill="white"/>
  <!-- Down tube -->
  <polygon points="340,750 468,518 488,534 360,766" fill="white"/>
  <!-- Top tube -->
  <polygon points="296,528 466,500 472,522 302,550" fill="white"/>
  <!-- Fork -->
  <polygon points="466,500 480,742 462,748 450,514" fill="white"/>
  <!-- Saddle -->
  <path d="M252,514 Q292,498 332,510 Q338,522 330,532 Q290,522 252,534Z" fill="white"/>
  <!-- Handlebar -->
  <path d="M446,486 Q472,474 496,488 Q504,500 494,512 Q480,502 462,508 Q444,510 446,486Z" fill="white"/>

  <!-- Rider body – aerodynamic tuck facing right -->
  <!-- Head + aero helmet -->
  <ellipse cx="474" cy="384" rx="48" ry="44" fill="white"/>
  <path d="M474,344 C502,332 532,348 538,376 C522,376 504,368 486,372 C476,360 474,350 474,344Z" fill="white"/>

  <!-- Torso (nearly horizontal) -->
  <path d="M460,426 C420,444 352,462 290,478 C270,484 256,500 260,516 C264,530 282,534 300,528 C368,510 440,490 472,470 C488,460 486,442 460,426Z" fill="white"/>

  <!-- Right arm to handlebar -->
  <path d="M462,440 C474,460 468,486 454,496 C440,504 426,494 428,478 C440,466 450,448 446,432Z" fill="white"/>

  <!-- Left upper leg – power stroke -->
  <path d="M296,506 C280,554 268,606 262,654 C258,678 272,688 292,686 C314,684 324,668 322,644 C328,598 342,550 358,506 C340,490 310,490 296,506Z" fill="white"/>
  <!-- Left lower leg -->
  <path d="M264,652 C252,694 252,736 260,768 C264,782 280,788 296,782 C312,776 318,760 314,746 C308,718 310,678 322,642 C298,628 272,636 264,652Z" fill="white"/>

  <!-- Right upper leg – recovery -->
  <path d="M296,506 C278,476 262,448 254,420 C246,396 260,378 278,380 C298,382 308,400 314,424 C324,452 338,480 354,506 C336,520 312,520 296,506Z" fill="white"/>
  <!-- Right lower leg tucked -->
  <path d="M254,422 C234,440 226,468 234,496 C238,512 256,518 272,510 C288,502 290,486 282,470 C274,452 268,436 272,418Z" fill="white"/>


  <!-- ═══════════════════ RUNNER (right) ═══════════════════ -->
  <!-- Head -->
  <circle cx="762" cy="232" r="62" fill="white"/>

  <!-- Torso – slight forward lean -->
  <path d="M730,290 C706,358 700,438 702,510 C702,534 718,548 740,544 C762,540 774,524 772,500 C770,430 776,354 798,288 C810,254 792,238 768,238 C746,240 736,262 730,290Z" fill="white"/>

  <!-- LEFT ARM – swinging forward, bent up (elbow leads) -->
  <!-- Upper arm -->
  <path d="M718,318 C682,358 658,404 648,446 C642,468 654,486 674,488 C696,490 712,474 718,452 C730,414 752,372 778,336 C760,312 730,306 718,318Z" fill="white"/>
  <!-- Forearm pointing up -->
  <path d="M650,442 C622,462 602,496 596,528 C590,552 602,570 622,572 C644,574 660,558 666,534 C674,506 692,476 716,452 C698,428 662,426 650,442Z" fill="white"/>

  <!-- RIGHT ARM – pumping back, bent -->
  <!-- Upper arm -->
  <path d="M768,314 C804,348 836,390 850,430 C858,454 848,472 826,476 C804,480 786,464 778,440 C764,402 736,364 706,332 C720,308 754,302 768,314Z" fill="white"/>
  <!-- Forearm -->
  <path d="M850,428 C874,450 892,482 896,514 C900,538 886,556 864,556 C842,556 826,540 826,516 C824,490 810,462 788,442 C804,418 840,418 850,428Z" fill="white"/>

  <!-- LEFT LEG – knee driving HIGH forward -->
  <!-- Upper leg (thigh up and forward) -->
  <path d="M718,528 C692,578 668,630 652,678 C642,704 652,724 674,730 C698,736 718,722 726,696 C744,650 766,600 790,554 C770,524 736,514 718,528Z" fill="white"/>
  <!-- Lower leg (shin angled forward below knee) -->
  <path d="M654,676 C634,726 628,778 634,826 C638,850 656,860 678,854 C700,848 710,830 706,806 C700,758 708,706 726,660 C702,640 664,650 654,676Z" fill="white"/>
  <!-- Left foot -->
  <path d="M634,824 C610,850 606,878 620,894 C634,908 668,910 698,898 C722,886 728,864 714,848 C700,832 670,820 634,824Z" fill="white"/>

  <!-- RIGHT LEG – pushing off behind, trailing -->
  <!-- Upper leg -->
  <path d="M742,530 C770,584 790,640 798,694 C804,720 792,740 768,744 C744,748 724,732 718,706 C710,652 692,596 668,544 C686,514 722,512 742,530Z" fill="white"/>
  <!-- Lower leg trailing back -->
  <path d="M798,692 C820,742 826,796 818,844 C814,868 796,878 774,870 C752,862 742,842 748,818 C756,768 752,714 730,666 C754,646 792,658 798,692Z" fill="white"/>
  <!-- Right foot (toe push-off) -->
  <path d="M818,842 C838,868 838,896 822,908 C806,918 778,914 756,900 C736,886 734,862 750,848 C766,836 796,832 818,842Z" fill="white"/>

  <!-- Ground shadow -->
  <ellipse cx="512" cy="900" rx="380" ry="16" fill="white" opacity="0.12"/>

  <!-- Heart top-right -->
  <path d="M872,152 C872,152 840,116 840,94 C840,72 856,60 872,74 C888,60 904,72 904,94 C904,116 872,152 872,152Z" fill="white" opacity="0.55"/>

</svg>
